<?xml version="1.0" encoding="utf-8"?>
<svg viewBox="0 0 512 512" width="800px" height="800px" xmlns="http://www.w3.org/2000/svg">
  <path d="M 239.549 401.469 C 233.553 402.963 227.502 404.224 221.408 405.249 L 243.295 451.047 C 224.925 450.992 228.438 451.147 220.99 451.272 L 222.474 469.21 C 244.556 469.115 283.78 468.792 329.224 473.004 L 330.884 455.082 C 311.271 453.264 288.696 451.846 263.359 451.289 L 239.549 401.469 Z" style="transform-origin: 221.507px 384.53px;" transform="matrix(0.985616028309, 0.169002979994, -0.169002979994, 0.985616028309, 0.000005896186, -0.000014700951)"/>
  <path d="M 287.117 445.911 C 260.127 444.93 235.532 445.795 214.603 446.83 L 202.761 402.615 C 196.311 402.305 189.935 401.715 183.656 400.851 L 196.254 447.892 C 189.151 448.352 181.958 448.861 174.59 449.47 L 176.074 467.408 C 211.5 464.477 228.952 464.003 243.207 463.617 C 259.642 463.172 268.475 463.327 287.511 463.301 L 287.117 445.911 Z" style="transform-origin: 188.238px 382.838px;" transform="matrix(0.689522147179, 0.724264919758, -0.724264919758, 0.689522147179, 0.000044999699, -0.00003578367)"/>
</svg>